#!OML:ASF H:\Terrain\Patient Classification 1\Walking\liu\liu.ASF
:FULLY-SPECIFIED
:DEGREES
12
root 8.27543328922 15.6771186442 -30.706994009 7.70382400344 -8.89098202621 -6.49404556992
lowerback -8.68719335596 1.38006374958 2.5980688398
upperback -1.18824558344 1.42320600454 4.05625324577
thorax 3.59904013734 0.714830378511 2.9186957542
lowerneck -21.0453616453 -4.84799131288 -12.7738679873
upperneck 15.7331421125 -5.85577110305 14.7609660916
head 9.26522715808 -1.97966752497 6.46506727822
rclavicle -2.76839276982e-14 -4.9916500678e-14
rhumerus -45.7221590138 19.5642483582 -93.5155639649
rradius 56.3575306771
rwrist -26.7786965171
rhand -30.5465522175 -34.8592799661
rfingers 7.12502
rthumb -3.84526591333 -64.8047581838
lclavicle -2.76839276982e-14 -4.9916500678e-14
lhumerus -44.1606653444 -7.42230626406 92.1555509501
lradius 23.2614150872
lwrist 0.0570269688464
lhand 6.53873533645 -17.9429386792
lfingers 7.12502
lthumb 31.8367814513 9.29810691599
rfemur 23.7294515899 6.12782836311 27.6000297505
rtibia -0.0429864139475
rfoot -2.88369935994 0.963912248209
rtoes -25.9229379925
lfemur -43.7318706008 8.91922679262 -12.7983713974
ltibia 35.3399763114
lfoot 0.971741198935 7.30984001326
ltoes -4.05315509062
13
root 8.41794525156 15.7519147018 -30.0877602899 7.4219767682 -9.72097856504 -5.32458501459
lowerback -8.69465805743 0.954590020723 1.43044888274
upperback -1.09048786142 0.962245236694 4.06306583822
thorax 3.69944573173 0.469490340554 3.53293805515
lowerneck -21.5615966531 -4.47310963995 -12.3743459339
upperneck 15.7790159459 -5.26048543697 14.1153415175
head 9.24444043798 -1.72429296339 6.25015408165
rclavicle 1.41328294397e-14 -2.72500006807e-14
rhumerus -45.5376201983 20.4188913373 -93.8151235256
rradius 53.2110851796
rwrist -25.6955264355
rhand -29.5739096178 -30.2733379242
rfingers 7.12502
rthumb -2.90599212061 -60.2331727376
lclavicle 1.41328294397e-14 -2.72500006807e-14
lhumerus -43.8476004494 -5.20826717118 91.2983313541
lradius 21.9541874068
lwrist -2.05743340939
lhand 4.2532275356 -17.5914863587
lfingers 7.12502
lthumb 29.657443597 10.0570239162
rfemur 21.3089685164 6.11173783402 25.1802351204
rtibia 7.7791812426
rfoot 0.368452138725 0.295860445619
rtoes -20.4906840194
lfemur -42.5870052139 9.36799276473 -14.9402326611
ltibia 38.1280045863
lfoot -1.17168387424 6.29268975029
ltoes -1.96715898812
14
root 8.58515862999 15.8558308077 -29.4927376779 6.72957880076 -10.1816901118 -3.2853030944
lowerback -6.8017780837 0.611989115167 0.149301547051
upperback -2.26034817405 0.727960169977 3.54246223116
thorax 1.43635054664 0.367959145437 3.63104503079
lowerneck -21.3228747874 -4.23834632431 -12.9598375417
upperneck 16.9970185503 -4.9609023922 14.4013115494
head 9.59961118394 -1.59897976536 6.54860474542
rclavicle 8.09551574384e-15 1.00530104951e-14
rhumerus -47.1845688709 19.8645721328 -94.7035223872
rradius 49.4803407186
rwrist -25.0789909076
rhand -30.4099120611 -28.907183724
rfingers 7.12502
rthumb -3.71326800501 -58.8545048512
lclavicle 8.09551574384e-15 1.00530104951e-14
lhumerus -45.2055667753 -3.1475530355 90.1102367489
lradius 21.1705271549
lwrist -4.04338700012
lhand 4.00485905134 -16.4992916403
lfingers 7.12502
lthumb 29.4203327306 11.1913411527
rfemur 16.9568039892 4.51825608927 21.4142783093
rtibia 18.9856194043
rfoot 3.23994611467 0.205722521917
rtoes -15.1179466057
lfemur -39.8028996087 8.46058422392 -17.6482886906
ltibia 38.5320473709
lfoot -4.05332096131 6.72465401541
ltoes -2.10265134359
15
root 8.71589971474 15.9419810626 -28.9555337761 6.40511505254 -10.7950636566 -2.03605876165
lowerback -6.30120746252 0.873290960608 -0.554022305642
upperback -2.45518539408 1.14445689576 2.97211242932
thorax 0.929561011452 0.583654812442 3.45434016415
lowerneck -21.5228535461 -4.49960196981 -12.9192361499
upperneck 17.3171163139 -5.32619611955 14.2972090413
head 9.80076980176 -1.76955012632 6.46099002585
rclavicle 2.91053365957e-14 -1.10086790058e-16
rhumerus -46.078413496 17.4525770103 -94.0522357297
rradius 45.0691500274
rwrist -23.1515046098
rhand -29.4266133176 -27.2550117987
rfingers 7.12502
rthumb -2.76369759813 -57.2166016528
lclavicle 2.91053365957e-14 -1.10086790058e-16
lhumerus -44.0162184649 -2.51793236546 88.7615797646
lradius 19.9049546629
lwrist -6.03129476663
lhand 3.99470217771 -16.7056968983
lfingers 7.12502
lthumb 29.4106339577 10.9865813617
rfemur 12.4189010131 2.31058586342 18.6102045548
rtibia 29.2869752353
rfoot 6.81788905411 -0.546256852098
rtoes -11.9779630598
lfemur -37.2518931514 8.61249307034 -19.5477217932
ltibia 38.1725623372
lfoot -6.19055172211 6.58581673696
ltoes -0.480946000392
